<svg width="31" height="46" viewBox="0 0 31 46" fill="none" xmlns="http://www.w3.org/2000/svg">
<path d="M15.661 36.8647C14.8476 37.0972 14.1861 37.651 13.4721 38.087C9.30942 40.6321 5.15883 43.2004 1.01227 45.7745C0.358825 46.18 0.549749 45.6131 0.548405 45.3282C0.541682 38.087 0.543027 30.8458 0.543027 23.6032C0.543027 22.4898 0.560506 21.375 0.533615 20.2617C0.522859 19.8198 0.655968 19.5684 1.0163 19.3474C5.68051 16.4914 10.3353 13.6178 14.9941 10.7531C15.1972 10.6281 15.384 10.397 15.6637 10.5525C15.661 12.5466 15.6583 14.5393 15.6556 16.5335C14.8933 16.7094 14.3084 17.2646 13.6523 17.6585C11.0775 19.2079 8.52824 20.8096 5.96152 22.375C5.62942 22.577 5.48152 22.7994 5.48286 23.2238C5.49496 27.5799 5.49765 31.936 5.48286 36.292C5.48017 36.8748 5.61059 36.885 6.03412 36.6219C8.9948 34.7804 11.9662 32.9577 14.935 31.1307C15.1595 30.9927 15.3585 30.7456 15.6637 30.8967C15.6624 32.8851 15.661 34.8749 15.6597 36.8632L15.661 36.8647Z" fill="#2D572D"/>
<path d="M15.6607 36.8643C15.662 34.8759 15.6633 32.8861 15.6647 30.8978C18.7934 32.8106 21.9249 34.719 25.0482 36.6434C25.4744 36.9064 25.6721 36.9995 25.6371 36.3003C25.5874 35.3105 25.6008 34.3134 25.6344 33.3222C25.6492 32.8702 25.4986 32.639 25.141 32.4225C22.14 30.5969 19.1511 28.7481 16.1595 26.9051C15.986 26.7975 15.8233 26.6711 15.6553 26.5548C15.658 24.5621 15.662 22.5708 15.6647 20.5781C19.1027 22.6857 22.5407 24.7932 25.9786 26.8993C27.3581 27.7452 28.7349 28.5984 30.1212 29.4298C30.4654 29.6362 30.6173 29.8658 30.616 30.3251C30.5971 35.3629 30.5998 40.4006 30.6106 45.4398C30.6106 45.9369 30.5608 46.1084 30.0808 45.8104C25.4059 42.9137 20.7228 40.0314 16.0438 37.1448C15.9094 37.062 15.787 36.9588 15.6593 36.8643H15.6607Z" fill="#3D6E3F"/>
<path d="M28.1761 10.8327C28.1761 11.4868 28.1546 12.1423 28.1828 12.7949C28.207 13.356 28.0228 13.3371 27.6531 13.106C25.5005 11.7673 23.3411 10.4389 21.1831 9.10893C19.4917 8.06679 17.7909 7.04209 16.1129 5.97379C15.6867 5.70199 15.368 5.72234 14.9512 5.98105C11.1892 8.32115 7.41641 10.6409 3.64632 12.9635C2.98346 13.372 2.97943 13.3661 2.97809 12.5115C2.97809 11.2761 2.98884 10.0406 2.97136 8.80515C2.96598 8.41853 3.08699 8.19324 3.40161 7.99847C7.32498 5.5799 11.2376 3.14678 15.1489 0.709307C15.4083 0.546518 15.6087 0.543611 15.8816 0.713668C19.8131 3.16422 23.7499 5.6046 27.6934 8.0319C28.047 8.24993 28.211 8.49266 28.1855 8.94323C28.1492 9.57113 28.1761 10.2019 28.1761 10.8313V10.8327Z" fill="#F2AF37"/>
<path d="M15.6566 16.5333C15.6593 14.5391 15.662 12.5464 15.6647 10.5522C19.4644 12.8822 23.2654 15.2106 27.065 17.5405C28.0936 18.1714 29.1155 18.8138 30.1534 19.4257C30.4828 19.6205 30.6227 19.8385 30.616 20.2644C30.5891 21.9082 30.6012 23.5536 30.6079 25.1974C30.6092 25.5535 30.5971 25.7803 30.1817 25.523C25.3427 22.5216 20.4983 19.5274 15.6553 16.5318L15.6566 16.5333Z" fill="#3D6E3F"/>
<path d="M15.6665 20.5787C15.6638 22.5714 15.6598 24.5626 15.6571 26.5553C14.9458 26.7268 14.3838 27.2283 13.7653 27.5946C12.2016 28.5219 10.6554 29.4855 9.11188 30.455C8.79188 30.6556 8.64263 30.7646 8.6507 30.2137C8.67356 28.5219 8.6628 26.83 8.65608 25.1382C8.65608 24.8577 8.68835 24.6542 8.95457 24.4929C11.0319 23.2298 13.0984 21.9449 15.1677 20.6659C15.325 20.5685 15.4769 20.4609 15.6652 20.5787H15.6665Z" fill="#2D572D"/>
</svg>
