<svg width="30" height="23" viewBox="0 0 30 23" fill="none" xmlns="http://www.w3.org/2000/svg">
<path d="M13.2416 0.938179L8.85539 15.6109L7.13226 9.03169C9.18609 9.03169 10.8396 9.60607 12.0928 10.7548C13.3808 11.9036 14.0248 13.5049 14.0248 15.5587C14.0248 17.5777 13.3634 19.1965 12.0406 20.4148C10.7526 21.6332 9.11647 22.2424 7.13226 22.2424C5.14804 22.2424 3.49453 21.6332 2.17172 20.4148C0.883715 19.1965 0.239715 17.5777 0.239715 15.5587C0.239715 15.0017 0.274526 14.4448 0.344148 13.8878C0.44858 13.3308 0.640039 12.652 0.918526 11.8514C1.23182 11.0507 1.68436 10.0064 2.27615 8.7184L5.93128 0.938179H13.2416ZM28.3843 0.938179L23.9981 15.6109L22.275 9.03169C24.3288 9.03169 25.9823 9.60607 27.2355 10.7548C28.5235 11.9036 29.1675 13.5049 29.1675 15.5587C29.1675 17.5777 28.5061 19.1965 27.1833 20.4148C25.8953 21.6332 24.2592 22.2424 22.275 22.2424C20.2907 22.2424 18.6372 21.6332 17.3144 20.4148C16.0264 19.1965 15.3824 17.5777 15.3824 15.5587C15.3824 15.0017 15.4172 14.4448 15.4869 13.8878C15.5913 13.3308 15.7827 12.652 16.0612 11.8514C16.3745 11.0507 16.8271 10.0064 17.4189 8.7184L21.074 0.938179H28.3843Z" fill="#545454"/>
</svg>
