<svg width="30" height="22" viewBox="0 0 30 22" fill="none" xmlns="http://www.w3.org/2000/svg">
<path d="M16.7785 21.5926L21.1646 6.91982L22.8878 13.4991C20.8339 13.4991 19.1804 12.9247 17.9272 11.7759C16.6392 10.6272 15.9952 9.02588 15.9952 6.97204C15.9952 4.95301 16.6566 3.33431 17.9794 2.11593C19.2674 0.897552 20.9035 0.288363 22.8878 0.288363C24.872 0.288363 26.5255 0.897552 27.8483 2.11593C29.1363 3.33431 29.7803 4.95301 29.7803 6.97204C29.7803 7.52901 29.7455 8.08599 29.6759 8.64296C29.5714 9.19993 29.38 9.87874 29.1015 10.6794C28.7882 11.48 28.3357 12.5244 27.7439 13.8124L24.0887 21.5926L16.7785 21.5926ZM1.63576 21.5926L6.02193 6.91982L7.74506 13.4991C5.69122 13.4991 4.03771 12.9247 2.78452 11.7759C1.49652 10.6272 0.85252 9.02588 0.85252 6.97204C0.852521 4.95301 1.51393 3.33431 2.83674 2.11593C4.12474 0.89755 5.76084 0.288361 7.74506 0.288362C9.72928 0.288362 11.3828 0.897551 12.7056 2.11593C13.9936 3.33431 14.6376 4.95301 14.6376 6.97204C14.6376 7.52901 14.6028 8.08598 14.5332 8.64296C14.4287 9.19993 14.2373 9.87874 13.9588 10.6794C13.6455 11.48 13.193 12.5244 12.6012 13.8124L8.94603 21.5926L1.63576 21.5926Z" fill="#545454"/>
</svg>
