<svg width="277" height="47" viewBox="0 0 277 47" fill="none" xmlns="http://www.w3.org/2000/svg">
<g clip-path="url(#clip0_344_80)">
<path d="M201.999 24.4429C201.999 19.8679 201.999 15.295 201.999 10.72C201.999 10.2332 201.902 9.75678 202.679 9.77758C207.145 9.89617 211.623 9.50504 216.074 9.99811C219.317 10.356 222.062 11.7603 223.047 15.1827C224.069 18.7278 222.926 21.94 219.526 23.6419C219.272 23.7688 218.829 23.7605 218.839 24.1162C218.848 24.4075 219.259 24.395 219.503 24.4907C222.385 25.6391 223.877 27.8798 224.051 30.9194C224.221 33.8799 222.975 36.2246 220.417 37.7558C218.694 38.7857 216.793 39.1331 214.82 39.1373C210.863 39.1435 206.905 39.1164 202.947 39.1581C202.169 39.1664 201.98 38.9313 201.986 38.1657C202.021 33.5907 202.003 29.0178 202.003 24.4429H201.999ZM207.769 30.4076C207.769 31.5165 207.776 32.6254 207.765 33.7343C207.761 34.1961 207.812 34.5477 208.411 34.5394C210.492 34.5082 212.575 34.5748 214.652 34.4707C216.297 34.3875 217.58 33.2745 217.979 31.8369C218.774 28.9825 217.1 26.5753 214.14 26.4339C212.268 26.3444 210.387 26.4276 208.511 26.3923C207.915 26.3819 207.743 26.6128 207.759 27.1828C207.79 28.2564 207.767 29.332 207.767 30.4055L207.769 30.4076ZM207.769 18.2576C207.769 19.2604 207.771 20.2632 207.769 21.266C207.769 21.6737 207.788 22.0316 208.343 22.0253C210.283 22.0004 212.233 22.1169 214.159 21.9463C216.377 21.7507 217.549 20.2049 217.44 17.983C217.34 15.9046 216.041 14.6147 213.855 14.5377C212.088 14.4753 210.316 14.5377 208.546 14.4919C207.882 14.4753 207.739 14.7582 207.759 15.3553C207.794 16.3228 207.769 17.2902 207.769 18.2597V18.2576Z" fill="#F2AF37"/>
<path d="M59.7987 22.4208C60.3989 16.9512 63.1111 12.913 68.1013 10.8097C73.665 8.46291 79.0955 8.91437 84.0303 12.6884C85.7286 13.9866 86.8306 15.7758 87.6418 17.7522C87.8426 18.2411 87.9758 18.6115 87.1461 18.5803C85.4069 18.5137 83.6637 18.5574 81.9224 18.5615C81.5414 18.5615 81.2239 18.5595 80.9822 18.1371C78.2905 13.4394 70.0658 13.5871 67.0401 18.728C64.4754 23.0845 65.2805 29.2323 68.9247 32.3697C73.4314 36.2497 80.7876 34.2109 82.5923 28.5811C82.9979 27.3141 82.9897 27.2995 81.7319 27.2975C79.1037 27.2975 76.4735 27.2579 73.8452 27.3203C73.0381 27.3391 72.8722 27.0769 72.9234 26.3342C72.9869 25.4375 72.9705 24.5304 72.9275 23.6317C72.8988 23.0616 73.116 22.943 73.6322 22.9451C78.3786 22.9617 83.1229 22.9534 87.8692 22.9576C88.1888 22.9576 88.6231 22.8452 88.6005 23.4028C88.5043 25.7017 88.8976 28.0235 88.0106 30.2788C85.7449 36.0459 80.2959 39.6097 73.9989 39.437C66.7615 39.2373 61.2081 34.4231 59.9626 27.8342C59.8868 27.4306 59.8581 27.0145 59.8089 26.6067C59.811 26.3966 59.5344 22.9597 59.8028 22.4187L59.7987 22.4208Z" fill="white"/>
<path d="M132.105 24.4114C132.105 19.8718 132.127 15.3322 132.084 10.7947C132.076 9.95418 132.32 9.7607 133.108 9.78358C137.027 9.89593 140.956 9.58178 144.865 9.97083C148.105 10.2933 150.869 11.5686 152.444 14.6685C154.931 19.5639 152.764 25.1021 147.616 26.9725C146.809 27.2658 146.907 27.5009 147.247 28.0814C149.212 31.4289 151.131 34.8034 153.11 38.1405C153.569 38.9144 153.651 39.2202 152.577 39.1724C150.977 39.1037 149.371 39.1329 147.767 39.1661C147.225 39.1765 146.926 39.0122 146.651 38.5108C144.818 35.1612 142.943 31.8345 141.081 28.4995C140.706 27.8296 138.654 27.2617 138.045 27.6819C137.736 27.8962 137.89 28.2603 137.888 28.5515C137.877 31.8096 137.859 35.0655 137.898 38.3235C137.906 39.0143 137.711 39.1932 137.052 39.1682C135.69 39.1162 134.321 39.1037 132.959 39.1724C132.197 39.2119 132.086 38.9227 132.09 38.2341C132.119 33.6258 132.105 29.0176 132.105 24.4093V24.4114ZM137.881 18.8898C137.881 20.1714 137.888 21.453 137.877 22.7345C137.875 23.1049 137.855 23.3982 138.385 23.3816C140.258 23.3275 142.14 23.4232 144.002 23.2588C146.159 23.0674 147.462 21.3698 147.495 19.0147C147.528 16.6367 146.278 15.0389 144.084 14.7101C142.185 14.4272 140.27 14.6498 138.365 14.5728C137.812 14.55 137.879 14.9078 137.879 15.2532C137.879 16.4661 137.879 17.6769 137.879 18.8898H137.881Z" fill="white"/>
<path d="M239.551 9.87313C240.639 9.87313 241.915 9.51529 242.757 9.97507C243.568 10.4203 243.605 11.8454 243.961 12.844C246.586 20.211 249.177 27.5925 251.779 34.9678C252.19 36.137 252.588 37.3146 253.032 38.4713C253.223 38.9665 253.157 39.1517 252.602 39.1454C250.963 39.1246 249.324 39.1163 247.688 39.1496C247.122 39.1621 247.022 38.798 246.887 38.4027C246.418 37.0317 245.916 35.671 245.486 34.2875C245.32 33.7549 245.051 33.5885 244.529 33.5926C241.151 33.6072 237.771 33.6155 234.393 33.5864C233.791 33.5801 233.557 33.8402 233.391 34.3666C232.965 35.7147 232.48 37.0441 232.06 38.3964C231.892 38.9353 231.646 39.1745 231.052 39.1558C229.585 39.1121 228.114 39.0872 226.65 39.1621C225.683 39.212 225.793 38.8437 226.039 38.1572C228.131 32.3194 230.196 26.4712 232.265 20.625C233.438 17.3108 234.624 14.0029 235.765 10.6783C235.989 10.0292 236.265 9.71501 236.986 9.77535C237.834 9.84608 238.691 9.79199 239.545 9.79199C239.545 9.82112 239.545 9.84816 239.545 9.87729L239.551 9.87313ZM239.426 28.9594C240.551 28.9594 241.675 28.9469 242.798 28.9636C243.384 28.9719 243.697 28.9157 243.431 28.1543C242.173 24.5446 240.969 20.9184 239.739 17.2983C239.688 17.1444 239.61 16.9051 239.506 16.8823C239.217 16.8178 239.238 17.134 239.182 17.2963C237.951 20.9163 236.745 24.5446 235.503 28.1584C235.288 28.7826 235.432 28.974 236.052 28.9615C237.177 28.9407 238.301 28.9552 239.424 28.9552L239.426 28.9594Z" fill="#F2AF37"/>
<path d="M115.786 20.2005C115.786 23.0757 115.843 25.953 115.773 28.8262C115.64 34.3852 111.781 38.621 106.33 39.3034C102.882 39.7341 99.5882 39.3867 96.6691 37.2771C93.7848 35.1903 92.4819 32.209 92.4287 28.7221C92.3365 22.695 92.4143 16.6637 92.3836 10.6345C92.3795 9.93545 92.5844 9.75861 93.2419 9.78357C94.5714 9.83351 95.905 9.85015 97.2324 9.77941C98.0129 9.7378 98.1931 9.97914 98.187 10.7552C98.1522 16.3683 98.1727 21.9814 98.1645 27.5945C98.1645 28.4642 98.2321 29.3296 98.4492 30.1639C99.1703 32.9413 101.354 34.4351 104.378 34.2687C107.973 34.071 109.988 31.9677 110.005 28.2811C110.033 22.4599 110.027 16.6387 109.997 10.8176C109.992 10.0395 110.134 9.72324 110.982 9.77525C112.272 9.85639 113.575 9.84183 114.87 9.77941C115.618 9.74405 115.866 9.92921 115.853 10.7385C115.804 13.8904 115.833 17.0444 115.833 20.1984C115.816 20.1984 115.802 20.1984 115.786 20.1984V20.2005Z" fill="white"/>
<path d="M268.767 26.8584C268.767 30.6033 268.749 34.3461 268.784 38.0909C268.792 38.869 268.64 39.2123 267.784 39.1603C266.526 39.0833 265.256 39.0916 263.996 39.1582C263.185 39.1998 262.96 38.9356 262.964 38.1138C262.994 31.4916 262.982 24.8716 262.982 18.2494C262.982 17.3132 262.945 16.3749 262.994 15.4429C263.031 14.7272 262.806 14.4734 262.073 14.49C260.094 14.5358 258.113 14.4754 256.134 14.5212C255.405 14.5378 255.186 14.2986 255.225 13.5787C255.278 12.576 255.263 11.5669 255.229 10.5641C255.208 9.98577 255.384 9.77772 255.978 9.7798C262.566 9.79644 269.154 9.79644 275.742 9.7798C276.326 9.7798 276.525 9.96912 276.504 10.5558C276.469 11.5607 276.455 12.5676 276.508 13.5704C276.545 14.2799 276.342 14.5399 275.603 14.5212C273.624 14.4713 271.643 14.5358 269.664 14.4879C268.943 14.4713 268.745 14.6918 268.751 15.42C268.786 19.2335 268.767 23.047 268.767 26.8605V26.8584Z" fill="#F2AF37"/>
<path d="M152.438 9.82352C155.742 9.85472 159.065 9.51977 162.338 10.1585C165.55 10.7847 168.06 12.4803 169.15 15.7196C170.221 18.9027 169.739 21.9256 167.562 24.5678C166.544 25.8036 165.188 26.5235 163.721 27.0249C163.154 27.2184 163.068 27.3474 163.401 27.9153C165.462 31.4043 167.451 34.9369 169.512 38.428C169.92 39.1166 169.77 39.1811 169.09 39.1686C167.384 39.1374 165.675 39.1333 163.969 39.1728C163.41 39.1853 163.127 38.9835 162.861 38.4966C161.029 35.1429 159.151 31.8162 157.317 28.4625C157.004 27.8883 156.678 27.5908 155.982 27.6428C155.031 27.7114 154.071 27.6469 153.116 27.6324C152.958 27.6303 152.8 27.5845 152.643 27.5596C152.747 27.4472 152.837 27.3141 152.96 27.2288C154.167 26.3924 155.103 25.2981 155.775 23.9957C156.045 23.4735 156.373 23.3716 156.902 23.3612C158.258 23.3362 159.63 23.5567 160.964 23.1115C162.949 22.4499 163.86 20.8313 163.676 18.2474C163.543 16.3791 162.295 15.058 160.372 14.7126C159.251 14.5108 158.125 14.6149 157 14.5836C156.672 14.5732 156.307 14.6752 156.131 14.2362C155.377 12.3742 153.958 11.0988 152.43 9.9213L152.469 9.87345L152.43 9.8256L152.438 9.82352Z" fill="white"/>
<path d="M126.807 24.5406C126.807 29.1114 126.791 33.6842 126.824 38.255C126.828 38.9728 126.654 39.2058 125.929 39.1746C124.566 39.1143 123.2 39.133 121.838 39.1684C121.266 39.1829 121.002 39.1018 121.004 38.4028C121.029 29.1218 121.024 19.8408 121.01 10.5598C121.01 9.98555 121.147 9.7671 121.75 9.78583C123.147 9.82744 124.548 9.84408 125.943 9.78167C126.697 9.74838 126.828 10.0313 126.822 10.7241C126.793 15.3303 126.807 19.9365 126.807 24.5426V24.5406Z" fill="white"/>
<path d="M180.278 24.5573C180.278 29.099 180.261 33.6407 180.294 38.1823C180.298 38.9084 180.2 39.2267 179.374 39.1789C178.014 39.0977 176.644 39.1165 175.279 39.1747C174.614 39.2039 174.505 38.9667 174.507 38.3529C174.525 29.1302 174.53 19.9074 174.503 10.6847C174.501 9.93365 174.726 9.75472 175.423 9.78385C176.752 9.83794 178.088 9.84627 179.415 9.78177C180.173 9.74432 180.296 10.0335 180.292 10.7242C180.263 15.3346 180.278 19.947 180.278 24.5573Z" fill="white"/>
<path d="M191.143 26.3168C189.51 26.3168 187.875 26.2918 186.243 26.3292C185.61 26.3438 185.329 26.2211 185.37 25.4908C185.436 24.3549 185.407 23.2106 185.378 22.0705C185.366 21.5795 185.514 21.4193 186.011 21.4214C189.516 21.4422 193.023 21.4381 196.528 21.4256C196.944 21.4256 197.153 21.5129 197.143 21.9915C197.12 23.2356 197.112 24.4797 197.145 25.7238C197.159 26.2835 196.881 26.3272 196.452 26.323C194.683 26.3105 192.913 26.3168 191.143 26.3188V26.3168Z" fill="white"/>
<path d="M152.439 9.823L152.479 9.87151L152.439 9.92002C152.385 9.88838 152.331 9.85675 152.277 9.82511C152.331 9.82511 152.385 9.82511 152.439 9.82511V9.823Z" fill="#3D6E3F"/>
</g>
<path d="M15.3114 36.9816C14.498 37.2142 13.8365 37.7679 13.1225 38.204C8.95981 40.749 4.80922 43.3173 0.662661 45.8914C0.00921553 46.2969 0.20014 45.7301 0.198795 45.4452C0.192073 38.204 0.193417 30.9628 0.193417 23.7201C0.193417 22.6068 0.210896 21.492 0.184006 20.3786C0.173249 19.9368 0.306359 19.6853 0.666695 19.4644C5.3309 16.6083 9.98569 13.7348 14.6445 10.87C14.8475 10.745 15.0344 10.5139 15.3141 10.6694C15.3114 12.6636 15.3087 14.6563 15.306 16.6505C14.5437 16.8263 13.9588 17.3816 13.3027 17.7754C10.7279 19.3248 8.17863 20.9266 5.61191 22.492C5.27981 22.694 5.13191 22.9164 5.13325 23.3408C5.14535 27.6968 5.14804 32.0529 5.13325 36.4089C5.13056 36.9918 5.26098 37.002 5.68451 36.7389C8.64519 34.8973 11.6166 33.0747 14.5854 31.2477C14.8099 31.1096 15.0089 30.8625 15.3141 31.0137C15.3128 33.002 15.3114 34.9918 15.3101 36.9802L15.3114 36.9816Z" fill="#E0E0E0"/>
<path d="M15.312 36.9815C15.3134 34.9931 15.3147 33.0033 15.3161 31.015C18.4448 32.9277 21.5762 34.8362 24.6996 36.7606C25.1258 37.0236 25.3235 37.1167 25.2885 36.4175C25.2387 35.4277 25.2522 34.4306 25.2858 33.4394C25.3006 32.9873 25.15 32.7562 24.7924 32.5397C21.7914 30.7141 18.8024 28.8653 15.8108 27.0223C15.6374 26.9147 15.4747 26.7883 15.3066 26.672C15.3093 24.6793 15.3134 22.688 15.3161 20.6953C18.754 22.8028 22.192 24.9104 25.63 27.0165C27.0095 27.8624 28.3863 28.7156 29.7725 29.547C30.1167 29.7534 30.2687 29.983 30.2673 30.4423C30.2485 35.48 30.2512 40.5178 30.2619 45.557C30.2619 46.0541 30.2122 46.2256 29.7322 45.9276C25.0572 43.0308 20.3742 40.1486 15.6952 37.262C15.5608 37.1792 15.4384 37.076 15.3107 36.9815H15.312Z" fill="white"/>
<path d="M27.827 10.9499C27.827 11.604 27.8055 12.2595 27.8337 12.9121C27.8579 13.4732 27.6737 13.4543 27.3039 13.2232C25.1513 11.8845 22.992 10.556 20.834 9.22612C19.1426 8.18398 17.4417 7.15928 15.7638 6.09097C15.3375 5.81917 15.0189 5.83952 14.6021 6.09824C10.8401 8.43833 7.06729 10.7581 3.2972 13.0807C2.63434 13.4892 2.63031 13.4833 2.62896 12.6287C2.62896 11.3932 2.63972 10.1578 2.62224 8.92234C2.61686 8.53572 2.73787 8.31043 3.05249 8.11566C6.97586 5.69708 10.8885 3.26397 14.7997 0.826495C15.0592 0.663706 15.2596 0.660799 15.5325 0.830855C19.4639 3.28141 23.4007 5.72179 27.3443 8.14909C27.6979 8.36711 27.8619 8.60984 27.8364 9.06042C27.8001 9.68832 27.827 10.3191 27.827 10.9485V10.9499Z" fill="#F2AF37"/>
<path d="M15.308 16.6505C15.3107 14.6563 15.3134 12.6636 15.3161 10.6694C19.1157 12.9994 22.9167 15.3278 26.7164 17.6577C27.745 18.2885 28.7668 18.931 29.8048 19.5429C30.1342 19.7376 30.274 19.9557 30.2673 20.3815C30.2404 22.0254 30.2525 23.6707 30.2593 25.3146C30.2606 25.6707 30.2485 25.8975 29.833 25.6402C24.994 22.6388 20.1497 19.6446 15.3066 16.649L15.308 16.6505Z" fill="white"/>
<path d="M15.3159 20.6956C15.3132 22.6883 15.3092 24.6796 15.3065 26.6723C14.5952 26.8438 14.0332 27.3452 13.4147 27.7115C11.851 28.6388 10.3048 29.6025 8.76129 30.572C8.44129 30.7725 8.29205 30.8815 8.30011 30.3307C8.32297 28.6388 8.31222 26.947 8.30549 25.2551C8.30549 24.9746 8.33776 24.7711 8.60398 24.6098C10.6813 23.3467 12.7478 22.0619 14.8171 20.7828C14.9744 20.6854 15.1263 20.5779 15.3146 20.6956H15.3159Z" fill="#E0E0E0"/>
<defs>
<clipPath id="clip0_344_80">
<rect width="216.829" height="30.0962" fill="white" transform="translate(59.6826 9.36987)"/>
</clipPath>
</defs>
</svg>
